<svg id="Layer_2" data-name="Layer 2" xmlns="http://www.w3.org/2000/svg" viewBox="0 0 273.17 198.65"><defs><style>.cls-1,.cls-3{fill:#170d0b;}.cls-2{font-size:64px;fill:#522a27;font-family:LilyScriptOne-Regular, Lily Script One;}.cls-3{font-size:24px;font-family:Khula-Light, Khula;font-weight:300;letter-spacing:0.34em;}.cls-4{letter-spacing:0.36em;}</style></defs><path class="cls-1" d="M225.15,65.05s-10.36,4.64-6.63,19.63C218.52,84.68,226.76,86.39,225.15,65.05Z" transform="translate(-0.59 -1.99)"/><path class="cls-1" d="M244.16,70.77s-20.79,1.9-18.59,10.76C225.57,81.53,232.54,84.28,244.16,70.77Z" transform="translate(-0.59 -1.99)"/><path class="cls-1" d="M234.4,57.42S223.78,66,226.94,74.54C226.94,74.54,235.59,75,234.4,57.42Z" transform="translate(-0.59 -1.99)"/><path class="cls-1" d="M253.49,59.47s-17.07,2.89-19.88,11.42C233.61,70.89,241.24,74,253.49,59.47Z" transform="translate(-0.59 -1.99)"/><path class="cls-1" d="M243.65,44S232.19,53.47,236,64.42C236,64.42,243.22,65.15,243.65,44Z" transform="translate(-0.59 -1.99)"/><path class="cls-1" d="M257.54,50.46s-14.87.28-15.41,10.46C242.13,60.92,251.76,62.16,257.54,50.46Z" transform="translate(-0.59 -1.99)"/><path class="cls-1" d="M252.07,34.87S242,42.42,244.86,53C244.86,53,249.43,56,252.07,34.87Z" transform="translate(-0.59 -1.99)"/><path class="cls-1" d="M267.51,38s-18.6,5.6-17,11.73C250.47,49.7,259.88,53.59,267.51,38Z" transform="translate(-0.59 -1.99)"/><path class="cls-1" d="M257,26.77s-5.06,5-5,16.4C252,43.17,258.18,46.42,257,26.77Z" transform="translate(-0.59 -1.99)"/><path class="cls-1" d="M272.24,28.41S260.57,31.47,257,39.72C257,39.72,270.41,39.72,272.24,28.41Z" transform="translate(-0.59 -1.99)"/><path class="cls-1" d="M261.72,17.62S255,26.35,259.37,33.5C259.37,33.5,265.77,33.67,261.72,17.62Z" transform="translate(-0.59 -1.99)"/><path class="cls-1" d="M264.1,29.59s-1.82-9.85,9.63-15C273.73,14.6,274.91,30.34,264.1,29.59Z" transform="translate(-0.59 -1.99)"/><path class="cls-1" d="M265.35,6.3s-4.24,8.59-1.49,13.81C263.86,20.11,271.42,20.31,265.35,6.3Z" transform="translate(-0.59 -1.99)"/><path class="cls-1" d="M269.18,2s-4.26,4.75-.12,12.11C269.06,14.1,277.89,15.05,269.18,2Z" transform="translate(-0.59 -1.99)"/><path class="cls-1" d="M223.55,84.24a18,18,0,0,0-2.22.9,12.89,12.89,0,0,0-6,6.39,8.54,8.54,0,0,0,4.48.52,60.15,60.15,0,0,0,13.16-8A18.85,18.85,0,0,0,223.55,84.24Z" transform="translate(-0.59 -1.99)"/><path class="cls-1" d="M212.13,94.46l-.48.11.08.1A3,3,0,0,0,212.13,94.46Z" transform="translate(-0.59 -1.99)"/><path class="cls-1" d="M210.63,94.76l-.15,0a2.18,2.18,0,0,0,1.25-.12l-.08-.1-.89.17h-.13Z" transform="translate(-0.59 -1.99)"/><path class="cls-1" d="M210.68,94.75h.08l-.13,0Z" transform="translate(-0.59 -1.99)"/><path class="cls-1" d="M165.08,38.74,163,36.22a5.08,5.08,0,0,0-4.53-1.77,15.31,15.31,0,0,0-10.81,6.72,5.37,5.37,0,0,0-.13,5.79l1.54,2.54A35.79,35.79,0,0,1,165.08,38.74Z" transform="translate(-0.59 -1.99)"/><path class="cls-1" d="M215.94,77.42a6.68,6.68,0,0,0-2.4,1.55,21.29,21.29,0,0,0-1.91,1.77,14.72,14.72,0,0,0-2.46,3.46c-1,2-.95,3.9-1,6.06a6.34,6.34,0,0,1-.77-.85l-9.57-11.47L182.83,60,169,43.49l-1.95-2.34a32.92,32.92,0,0,0-16.44,11l19.09,31.48L171.62,85c1.41,1.07,14.32,10.45,31.13,10.45a46.28,46.28,0,0,0,7.88-.72l.13,0a3.71,3.71,0,0,0,2.86-1.89,21.56,21.56,0,0,0,2.51-8.14A22.32,22.32,0,0,0,215.94,77.42Z" transform="translate(-0.59 -1.99)"/><path class="cls-1" d="M236.49,88.54c-16.68,14.48-51,14.38-67.48,0a23.12,23.12,0,0,0,.31,11.77c.2.74.42,1.48.68,2.2a87.59,87.59,0,0,0,32.75,7.32,87.65,87.65,0,0,0,32.75-7.32C237.77,97.58,236.85,87.94,236.49,88.54Z" transform="translate(-0.59 -1.99)"/><path class="cls-1" d="M202.75,112.71a91.1,91.1,0,0,1-31-6.3c5.39,9.78,17.8,16.52,31,16.52h0c13.19,0,25.6-6.74,31-16.52A91,91,0,0,1,202.75,112.71Z" transform="translate(-0.59 -1.99)"/><text class="cls-2" transform="translate(0 105.52)">Stone</text><text class="cls-2" transform="translate(2.88 161.06)">Valley</text><text class="cls-3" transform="translate(17.24 187.03)">B<tspan class="cls-4" x="22.22" y="0">AKERY</tspan></text></svg>